<?xml version="1.0" encoding="utf-8"?>
<svg version="1.1" id="Layer_1" xmlns="http://www.w3.org/2000/svg" xmlns:xlink="http://www.w3.org/1999/xlink" x="0px" y="0px"
	 viewBox="0 0 512 512" style="enable-background:new 0 0 512 512;" xml:space="preserve">
<style type="text/css">
	.st0{fill:#0A0A0A;}
	.st1{fill:#25CE8D;}
</style>
<g>
	<path class="st0" d="M354.27,6.53H157.73c-4.19,0-8.22,1.65-11.21,4.6L7.71,147.98c-3.04,3-4.76,7.09-4.76,11.37v193.31
		c0,4.27,1.71,8.37,4.76,11.37l138.82,136.85c2.99,2.94,7.01,4.6,11.21,4.6h196.54c4.19,0,8.22-1.65,11.21-4.6l138.82-136.85
		c3.04-3,4.76-7.09,4.76-11.37V159.35c0-4.27-1.71-8.37-4.76-11.37L365.48,11.13C362.49,8.18,358.47,6.53,354.27,6.53z"/>
	<path class="st1" d="M167.2,130.43c28.01,42.25,55.6,83.87,84.45,127.38c1.89,2.84,6.07,2.85,7.96,0.01
		c28.51-42.91,55.94-84.19,84.41-127.04c1.84-2.76,5.87-2.86,7.83-0.18c3.33,4.55,6.18,8.4,8.84,12.39
		c8.56,12.85,16.66,26.01,25.51,38.65c4.36,6.23,4.59,11.16,0.28,17.65c-41.83,62.83-83.45,125.81-124.98,188.84
		c-5.6,8.5-8.69,4.27-12.46-1.42c-32.55-49.23-65.2-98.4-97.79-147.6c-9.09-13.73-18.37-27.35-26.92-41.41
		c-1.96-3.23-3.16-9.28-1.46-12c11.79-18.91,24.42-37.29,36.87-55.78c0.14-0.21,0.31-0.39,0.51-0.57
		C162.35,127.49,165.65,128.1,167.2,130.43z"/>
	<path class="st1" d="M443.02,324.84c-23.35,0-70.35,0-93.7,0c-5.92,0-9.45-6.6-6.17-11.53c16.16-24.35,31.57-47.57,47.77-71.98
		c2.5-3.77,8.04-3.77,10.54,0c16.19,24.41,31.55,47.58,47.74,71.98C452.46,318.24,448.93,324.84,443.02,324.84z"/>
	<path class="st1" d="M161.71,324.84c-23.35,0-70.35,0-93.7,0c-5.92,0-9.45-6.6-6.17-11.53c16.16-24.35,31.57-47.57,47.77-71.98
		c2.5-3.77,8.04-3.77,10.54,0c7.59,11.45,15,22.62,22.41,33.78c8.38,12.63,16.74,25.24,25.34,38.2
		C171.16,318.24,167.63,324.84,161.71,324.84z"/>
</g>
</svg>
