<?xml version="1.0" encoding="utf-8"?>
<svg version="1.1" xmlns="http://www.w3.org/2000/svg" viewBox="0 0 512 512">
<path fill="#000000" d="M350.77,7.88H162.23c-6.53,0-12.8,2.57-17.45,7.15L11.71,146.22c-4.74,4.67-7.4,11.04-7.4,17.7v185.17
	c0,6.65,2.67,13.03,7.4,17.7l133.07,131.19c4.65,4.58,10.92,7.15,17.45,7.15h188.54c6.53,0,12.8-2.57,17.45-7.15l133.07-131.19
	c4.74-4.67,7.4-11.04,7.4-17.7V163.91c0-6.65-2.67-13.03-7.4-17.7L368.22,15.03C363.57,10.45,357.3,7.88,350.77,7.88z"/>
<path fill="#000000" d="M168,131.27c27.92,42.11,55.41,83.58,84.16,126.95c1.88,2.83,6.05,2.84,7.93,0
	c28.42-42.77,55.75-83.91,84.12-126.61c1.83-2.75,5.85-2.85,7.8-0.18c3.32,4.53,6.16,8.37,8.81,12.35
	c8.53,12.8,16.61,25.92,25.42,38.52c4.34,6.21,4.58,11.13,0.27,17.59c-41.69,62.62-83.17,125.38-124.56,188.2
	c-5.58,8.47-8.66,4.26-12.41-1.42c-32.44-49.07-64.98-98.07-97.46-147.1c-9.06-13.68-18.31-27.25-26.82-41.27
	c-1.96-3.22-3.15-9.25-1.46-11.96c11.75-18.84,24.34-37.16,36.75-55.59c0.14-0.21,0.31-0.39,0.51-0.57
	C163.17,128.33,166.46,128.94,168,131.27z"/>
<path fill="#000000" d="M442.88,325.01c-23.27,0-70.11,0-93.38,0c-5.9,0-9.42-6.57-6.15-11.49c16.1-24.26,31.46-47.41,47.61-71.74
	c2.49-3.75,8.01-3.75,10.5,0c16.13,24.32,31.45,47.41,47.58,71.74C452.3,318.44,448.78,325.01,442.88,325.01z"/>
<path fill="#000000" d="M162.53,325.01c-23.27,0-70.11,0-93.38,0c-5.9,0-9.42-6.57-6.15-11.49c16.1-24.26,31.46-47.41,47.61-71.74
	c2.49-3.75,8.01-3.75,10.5,0c7.57,11.41,14.95,22.55,22.33,33.67c8.35,12.59,16.69,25.16,25.25,38.07
	C171.95,318.44,168.43,325.01,162.53,325.01z"/>
</svg>
